<svg width="18" height="18" viewBox="0 0 18 18" fill="none" xmlns="http://www.w3.org/2000/svg">
<path d="M14.4051 1.12501H3.5955C3.27106 1.12472 2.94975 1.1884 2.64995 1.31242C2.35015 1.43644 2.07774 1.61837 1.84833 1.84778C1.61892 2.07719 1.43699 2.3496 1.31297 2.6494C1.18895 2.9492 1.12527 3.27051 1.12556 3.59495V14.4045C1.12527 14.729 1.18895 15.0503 1.31297 15.3501C1.43699 15.6499 1.61892 15.9223 1.84833 16.1517C2.07774 16.3811 2.35015 16.563 2.64995 16.687C2.94975 16.8111 3.27106 16.8747 3.5955 16.8745H14.4051C15.0558 16.8735 15.68 16.6161 16.1423 16.1581C16.6047 15.7001 16.8679 15.0783 16.875 14.4276C15.2589 13.527 12.987 12.3064 10.8422 11.3186C9.71494 12.8644 7.88456 14.1666 5.61712 14.1666C3.13537 14.1666 2.322 12.5741 2.20556 11.4818C2.06606 10.1104 2.72869 8.61639 5.70431 8.61639C6.948 8.61639 8.49375 8.97695 10.1739 9.49389C10.755 8.43583 11.1038 7.3727 11.1038 7.3727H4.83919V6.78545H8.07637V5.68689H4.22887V5.01864H8.07637V3.2462H9.86681V5.01864H13.7143V5.68689H9.86625V6.78545H12.987C12.987 6.78545 12.4526 8.42458 11.6387 9.98158C13.3588 10.5688 15.1543 11.2483 16.8638 11.8356V3.59439C16.8648 3.27069 16.802 2.94996 16.6789 2.65056C16.5559 2.35116 16.375 2.07896 16.1466 1.84955C15.9182 1.62013 15.6469 1.43801 15.348 1.31358C15.0492 1.18916 14.7288 1.12489 14.4051 1.12445V1.12501ZM2.78719 11.3535C2.82206 12.0628 3.14775 13.2424 5.24587 13.2424C7.07625 13.2424 8.5005 11.8474 9.38981 10.6796C7.821 10.0232 6.41981 9.57545 5.54231 9.57545C3.17081 9.57545 2.75231 10.7376 2.78775 11.3535H2.78719Z" fill="white"/>
</svg>
