<svg viewBox="0 0 16 13" xmlns="http://www.w3.org/2000/svg">
<path d="M0 2.5C0 1.96957 0.210714 1.46086 0.585786 1.08579C0.960859 0.710714 1.46957 0.5 2 0.5H14C14.5304 0.5 15.0391 0.710714 15.4142 1.08579C15.7893 1.46086 16 1.96957 16 2.5V3.5H0V2.5Z"/>
<path fill-rule="evenodd" clip-rule="evenodd" d="M0 5.5V10.5C0 11.0304 0.210714 11.5391 0.585786 11.9142C0.960859 12.2893 1.46957 12.5 2 12.5H14C14.5304 12.5 15.0391 12.2893 15.4142 11.9142C15.7893 11.5391 16 11.0304 16 10.5V5.5H0ZM3 7.5C2.73478 7.5 2.48043 7.60536 2.29289 7.79289C2.10536 7.98043 2 8.23478 2 8.5V9.5C2 9.76522 2.10536 10.0196 2.29289 10.2071C2.48043 10.3946 2.73478 10.5 3 10.5H4C4.26522 10.5 4.51957 10.3946 4.70711 10.2071C4.89464 10.0196 5 9.76522 5 9.5V8.5C5 8.23478 4.89464 7.98043 4.70711 7.79289C4.51957 7.60536 4.26522 7.5 4 7.5H3Z" />
</svg>
