<svg width="23" height="18" viewBox="0 0 23 18" fill="none" xmlns="http://www.w3.org/2000/svg">
<g clip-path="url(#clip0)">
<path d="M8.38223 1.52884H14.5949V12.7676H8.38223V1.52884Z" fill="#FF5F00"/>
<path d="M8.77675 7.14835C8.77675 4.86488 9.84175 2.83948 11.4787 1.52891C10.2757 0.575819 8.75707 0 7.10035 0C3.17535 0 0 3.19685 0 7.14835C0 11.0998 3.17535 14.2967 7.10026 14.2967C8.75698 14.2967 10.2756 13.7209 11.4787 12.7677C9.84175 11.477 8.77675 9.43182 8.77675 7.14835V7.14835Z" fill="#EB001B"/>
<path d="M22.9772 7.14835C22.9772 11.0998 19.8018 14.2967 15.8769 14.2967C14.2202 14.2967 12.7015 13.7209 11.4984 12.7677C13.1552 11.4572 14.2005 9.43182 14.2005 7.14835C14.2005 4.86488 13.1354 2.83948 11.4984 1.52891C12.7015 0.575819 14.2202 0 15.8769 0C19.8018 0 22.9772 3.21675 22.9772 7.14835H22.9772Z" fill="#F79E1B"/>
</g>
<defs>
<clipPath id="clip0">
<rect width="23" height="18" fill="white"/>
</clipPath>
</defs>
</svg>
