<svg width="18" height="18" viewBox="0 0 18 18" fill="none" xmlns="http://www.w3.org/2000/svg">
<path d="M14.6655 7.116C14.7563 7.53825 14.745 8.0505 14.6355 8.65425C14.199 10.8877 12.7778 12.0037 10.3733 12.0037H10.0418C9.91924 12.003 9.80073 12.0473 9.70875 12.1282C9.61345 12.2108 9.55003 12.3241 9.5295 12.4485L9.49875 12.5902L9.084 15.1995L9.06825 15.3127C9.04685 15.438 8.9811 15.5514 8.883 15.6322C8.79045 15.7137 8.67104 15.758 8.54775 15.7567H6.6555C6.60814 15.7592 6.56087 15.7503 6.51767 15.7307C6.47447 15.7112 6.4366 15.6815 6.40725 15.6442C6.37744 15.6062 6.35601 15.5623 6.34438 15.5153C6.33274 15.4684 6.33117 15.4196 6.33975 15.372C6.3855 15.0922 6.45075 14.6685 6.54 14.1052C6.62775 13.5427 6.6945 13.1197 6.74025 12.8385C6.786 12.5572 6.85275 12.135 6.94425 11.5747C7.035 11.0137 7.10325 10.5922 7.1475 10.311C7.17225 10.125 7.28175 10.0327 7.47225 10.0327H8.45925C9.129 10.0425 9.72075 9.99 10.2405 9.8745C11.1195 9.678 11.841 9.3165 12.405 8.78775C12.9188 8.31 13.3073 7.69125 13.575 6.933C13.6965 6.5805 13.7828 6.24525 13.839 5.9295C13.8435 5.89875 13.8495 5.88 13.8578 5.874C13.8638 5.86575 13.8743 5.8635 13.884 5.86575C13.9003 5.87302 13.9159 5.8818 13.9305 5.892C14.3235 6.1905 14.571 6.59775 14.6655 7.116V7.116ZM13.3695 4.989C13.3695 5.52675 13.254 6.12 13.0208 6.7695C12.618 7.941 11.8605 8.733 10.743 9.1455C10.1745 9.34725 9.5415 9.4515 8.84175 9.46425C8.84175 9.46875 8.616 9.4695 8.16375 9.4695L7.4865 9.46425C6.9825 9.46425 6.68625 9.70425 6.59625 10.1872C6.5865 10.227 6.37275 11.5597 5.955 14.184C5.949 14.2335 5.919 14.2605 5.86425 14.2605H3.6405C3.58809 14.2616 3.53609 14.2511 3.48824 14.2297C3.44039 14.2083 3.39787 14.1765 3.36375 14.1367C3.32835 14.0976 3.30221 14.051 3.28728 14.0003C3.27235 13.9497 3.26901 13.8963 3.2775 13.8442L5.0265 2.748C5.0489 2.606 5.12254 2.47714 5.2335 2.38575C5.34169 2.29263 5.48002 2.24199 5.62275 2.24325H10.1333C10.3043 2.24325 10.5495 2.27625 10.8675 2.3415C11.1885 2.4045 11.4683 2.487 11.7098 2.58225C12.2483 2.78775 12.6593 3.09825 12.9435 3.51C13.2278 3.924 13.3695 4.41525 13.3695 4.989V4.989Z" fill="white"/>
</svg>
