<svg viewBox="0 0 66 66" xmlns="http://www.w3.org/2000/svg">
<path d="M31.9355 5.39329C32.0504 5.69187 31.8519 5.96494 31.6889 6.19593C30.5364 7.84578 29.6303 9.69082 29.269 11.6744C29.1276 12.0815 29.1588 12.3849 29.269 12.4187C31.5057 12.2204 34.0288 12.2432 36.2309 12.7183C40.2378 13.533 43.9828 15.5805 46.861 18.5081C49.7309 21.4055 51.7451 25.1599 52.5602 29.1765C53.4638 33.5256 52.9588 38.155 51.1515 42.2057C47.3193 50.477 40.8589 57.4732 32.954 61.9081C32.6991 62.0278 32.3316 62.0326 32.1569 61.7764C31.9511 61.508 32.0361 61.126 32.2395 60.882C33.3059 59.3794 34.0503 57.6522 34.4549 55.851C34.5326 55.4776 34.6391 55.0993 34.6068 54.7149C34.4764 54.5432 34.261 54.5952 34.0779 54.6014C30.2408 54.9893 26.2924 54.2966 22.8253 52.5851C19.1116 50.778 15.9604 47.8238 13.8767 44.2327C11.9463 40.9291 10.9314 37.0818 11.002 33.2439C11.0151 29.7217 11.9667 26.2283 13.6422 23.145C17.5427 15.5819 23.6666 9.19969 31.0608 5.07664C31.3707 4.90266 31.8291 5.0319 31.9355 5.39329ZM30.8452 25.2879C28.5629 25.5975 26.4577 26.9512 25.1794 28.8803C24.3142 30.2052 23.7898 31.779 23.8007 33.3722C23.7362 35.5067 24.5786 37.645 26.0388 39.1825C27.3146 40.5702 29.0871 41.4743 30.9457 41.716C32.8379 41.9687 34.8138 41.5215 36.4164 40.471C38.0452 39.4268 39.2864 37.7779 39.8417 35.9105C40.8842 32.6686 39.6347 28.8707 36.9155 26.8679C35.2076 25.5552 32.9683 24.9725 30.8452 25.2879V25.2879Z"/>
</svg>
