<svg width="42" height="14" viewBox="0 0 42 14" fill="none" xmlns="http://www.w3.org/2000/svg">
<g clip-path="url(#clip0)">
<path fill-rule="evenodd" clip-rule="evenodd" d="M30.1384 3.43776C31.0896 3.43776 31.8606 2.6902 31.8606 1.76835C31.8606 0.845969 31.0896 0.0976868 30.1384 0.0976868C29.1883 0.0976868 28.4177 0.845969 28.4177 1.76835C28.4177 2.6902 29.1883 3.43776 30.1384 3.43776ZM16.9488 4.33933C16.871 4.52869 16.3117 6.06133 14.959 7.64979V0.857815L11.3548 1.54884V13.86H14.959V10.0546C16.0029 11.5734 16.5184 13.86 16.5184 13.86H20.8355C20.4085 12.1379 18.5405 8.96238 18.5405 8.96238C20.217 6.90043 20.9534 4.70333 21.0705 4.33933H16.9488ZM26.4241 4.21081C23.1958 4.31133 21.5571 5.71635 21.5571 8.50935V13.86H25.079V9.49671C25.079 7.82425 25.3047 7.10738 27.3505 7.03899V4.25981C27.0062 4.18892 26.4241 4.21081 26.4241 4.21081ZM5.31013 5.69499C4.86867 5.66682 3.84661 5.60274 3.84661 4.71015C3.84661 3.63305 5.31809 3.63305 5.87001 3.63305C6.84045 3.63305 8.0973 3.91125 8.99485 4.17169C8.99485 4.17169 9.49552 4.34292 9.92162 4.51828L9.96122 4.52869V1.57881L9.90682 1.5632C8.84757 1.20369 7.61588 0.857815 5.33233 0.857815C1.39507 0.857815 0 3.08292 0 4.98907C0 6.08789 0.485498 8.67394 4.99467 8.97225C5.37693 8.99505 6.3914 9.05176 6.3914 9.97415C6.3914 10.7357 5.56084 11.1848 4.16392 11.1848C2.63305 11.1848 1.14806 10.8061 0.246079 10.4469V13.4851C1.59637 13.8285 3.11855 14 4.90253 14C8.75228 14 10.4765 11.8948 10.4765 9.8083C10.4765 7.44248 8.54709 5.90535 5.31013 5.69499ZM28.3926 13.86H31.886V4.3501H28.3926V13.86ZM38.4639 1.46412V13.86H41.9578V0.857815L38.4639 1.46412ZM33.3658 1.46412L36.8564 0.857815V13.86H33.3658V1.46412Z" fill="white"/>
</g>
<defs>
<clipPath id="clip0">
<rect width="42" height="14" fill="white"/>
</clipPath>
</defs>
</svg>
