<svg width="416" height="290" viewBox="0 0 416 290" fill="none" xmlns="http://www.w3.org/2000/svg">
<path d="M0 0.00402832H416V289.992H0V0.00402832Z" fill="#D60A2E"/>
<path d="M69.3197 52.9041L83.8997 82.448L116.5 87.1841L92.9077 110.18L98.4797 142.652L69.3197 127.32L40.1557 142.652L45.7277 110.18L22.1357 87.1841L54.7357 82.448L69.3197 52.9041Z" fill="#FED953"/>
<path d="M155.68 109.608L161.508 121.412L174.536 123.304L165.108 132.496L167.332 145.468L155.68 139.344L144.028 145.468L146.252 132.496L136.828 123.304L149.856 121.412L155.68 109.608Z" fill="#FED953"/>
<path d="M148.784 57.9921L159.432 65.7361L171.844 61.3561L167.768 73.8761L175.772 84.3281L162.608 84.3201L155.136 95.1601L151.076 82.6361L138.46 78.8841L149.112 71.1521L148.784 57.9921Z" fill="#FED953"/>
<path d="M131.708 22.372L129.22 35.3L138.46 44.68L125.396 46.308L119.332 57.992L113.748 46.072L100.76 43.912L110.372 34.916L108.408 21.9L119.936 28.26L131.708 22.372Z" fill="#FED953"/>
<path d="M131.708 154.824L129.22 167.752L138.46 177.128L125.396 178.756L119.332 190.44L113.748 178.52L100.76 176.364L110.372 167.368L108.408 154.352L119.936 160.712L131.708 154.824Z" fill="#FED953"/>
</svg>
