<svg fill="none" xmlns="http://www.w3.org/2000/svg" viewBox="0 0 16 16">
	<rect x="-2.75" y=".25" width="21.9" height="15.5" rx="1.75" fill="#fff" stroke="#F5F5F5" stroke-width=".5" />
	<mask id="a" maskUnits="userSpaceOnUse" x="-3" y="0" width="23" height="16">
		<rect x="-2.75" y=".25" width="21.9" height="15.5" rx="1.75" fill="#fff" stroke="#fff" stroke-width=".5" />
	</mask>
	<g mask="url(#a)" fill-rule="evenodd" clip-rule="evenodd">
		<path d="M19.4 7.467H7.667V0H19.4v7.467z" fill="#E52448" />
		<path
			d="M7.667 16H-3V7.467H7.667V16zM2.333 4.608l-1.254.851.422-1.455-1.197-.93 1.515-.048.514-1.426.514 1.426 1.515.048-1.197.93.422 1.455-1.254-.851z"
			fill="#1367AE" />
		<path
			d="M13.533 12.608l-1.254.851.422-1.455-1.197-.93 1.515-.048.514-1.426.514 1.426 1.515.048-1.197.93.422 1.455-1.254-.851z"
			fill="#E52448" />
	</g>
</svg>