<svg fill="none" xmlns="http://www.w3.org/2000/svg" viewBox="0 0 23 16">
	<rect width="22.4" height="16" rx="2" fill="#fff" />
	<mask id="a" maskUnits="userSpaceOnUse" x="0" y="0" width="23" height="16">
		<rect width="22.4" height="16" rx="2" fill="#fff" />
	</mask>
	<g mask="url(#a)">
		<path fill-rule="evenodd" clip-rule="evenodd"
			d="M22.4 0H0v1.067h22.4V0zm0 2.133H0V3.2h22.4V2.133zM0 4.267h22.4v1.066H0V4.267zM22.4 6.4H0v1.067h22.4V6.4zM0 8.533h22.4V9.6H0V8.533zm22.4 2.134H0v1.066h22.4v-1.066zM0 12.8h22.4v1.067H0V12.8zm22.4 2.133H0V16h22.4v-1.067z"
			fill="#D02F44" />
		<path fill="#46467F" d="M0 0h9.6v7.467H0z" />
		<g filter="url(#filter0_d)">
			<path fill-rule="evenodd" clip-rule="evenodd"
				d="M2.133 1.6a.533.533 0 11-1.066 0 .533.533 0 011.066 0zm2.134 0a.533.533 0 11-1.067 0 .533.533 0 011.067 0zm1.6.533a.533.533 0 100-1.066.533.533 0 000 1.066zM8.533 1.6a.533.533 0 11-1.066 0 .533.533 0 011.066 0zM2.667 3.2a.533.533 0 100-1.067.533.533 0 000 1.067zm2.666-.533a.533.533 0 11-1.066 0 .533.533 0 011.066 0zm1.6.533a.533.533 0 100-1.067.533.533 0 000 1.067zm1.6.533a.533.533 0 11-1.066 0 .533.533 0 011.066 0zm-2.666.534a.533.533 0 100-1.067.533.533 0 000 1.067zm-1.6-.534a.533.533 0 11-1.067 0 .533.533 0 011.067 0zM1.6 4.267a.533.533 0 100-1.067.533.533 0 000 1.067zm1.6.533a.533.533 0 11-1.067 0 .533.533 0 011.067 0zm1.6.533a.533.533 0 100-1.066.533.533 0 000 1.066zM7.467 4.8a.533.533 0 11-1.067 0 .533.533 0 011.067 0zM8 6.4a.533.533 0 100-1.067A.533.533 0 008 6.4zm-1.6-.533a.533.533 0 11-1.067 0 .533.533 0 011.067 0zM3.733 6.4a.533.533 0 100-1.067.533.533 0 000 1.067zm-1.6-.533a.533.533 0 11-1.066 0 .533.533 0 011.066 0z"
				fill="url(#paint0_linear)" />
		</g>
	</g>
	<defs>
		<linearGradient id="paint0_linear" x1="1.067" y1="1.067" x2="1.067" y2="6.4" gradientUnits="userSpaceOnUse">
			<stop stop-color="#fff" />
			<stop offset="1" stop-color="#F0F0F0" />
		</linearGradient>
		<filter id="filter0_d" x="1.067" y="1.067" width="7.467" height="6.333" filterUnits="userSpaceOnUse"
			color-interpolation-filters="sRGB">
			<feFlood flood-opacity="0" result="BackgroundImageFix" />
			<feColorMatrix in="SourceAlpha" values="0 0 0 0 0 0 0 0 0 0 0 0 0 0 0 0 0 0 127 0" />
			<feOffset dy="1" />
			<feColorMatrix values="0 0 0 0 0 0 0 0 0 0 0 0 0 0 0 0 0 0 0.06 0" />
			<feBlend in2="BackgroundImageFix" result="effect1_dropShadow" />
			<feBlend in="SourceGraphic" in2="effect1_dropShadow" result="shape" />
		</filter>
	</defs>
</svg>