<svg width="30" height="29" viewBox="0 0 30 29" fill="none" xmlns="http://www.w3.org/2000/svg">
<path d="M27 23.3337V24.667H3.00001V23.3337L5.66667 20.667V12.667C5.66667 8.53366 8.37334 4.89366 12.3333 3.72033V3.33366C12.3333 2.62641 12.6143 1.94814 13.1144 1.44804C13.6145 0.947944 14.2928 0.666992 15 0.666992C15.7072 0.666992 16.3855 0.947944 16.8856 1.44804C17.3857 1.94814 17.6667 2.62641 17.6667 3.33366V3.72033C21.6267 4.89366 24.3333 8.53366 24.3333 12.667V20.667L27 23.3337ZM17.6667 26.0003C17.6667 26.7076 17.3857 27.3858 16.8856 27.8859C16.3855 28.386 15.7072 28.667 15 28.667C14.2928 28.667 13.6145 28.386 13.1144 27.8859C12.6143 27.3858 12.3333 26.7076 12.3333 26.0003H17.6667ZM25.3333 2.25366L23.44 4.14699C24.5677 5.26088 25.4631 6.58756 26.0742 8.05009C26.6853 9.51262 27 11.0819 27 12.667H29.6667C29.6667 8.76033 28.12 5.00033 25.3333 2.25366ZM0.333338 12.667H3.00001C3.00001 9.46699 4.28 6.40033 6.56 4.14699L4.66667 2.25366C3.29051 3.61575 2.19876 5.23775 1.45486 7.02541C0.710958 8.81306 0.329733 10.7307 0.333338 12.667Z" fill="white"/>
</svg>
