<svg width="20" height="18" viewBox="0 0 20 18" fill="none" xmlns="http://www.w3.org/2000/svg">
<path d="M19.0502 15.7069L11.0612 0.870937C10.495 -0.180938 8.98656 -0.180938 8.41984 0.870937L0.4314 15.7069C0.308453 15.9352 0.246813 16.1916 0.252497 16.4508C0.25818 16.7101 0.330993 16.9635 0.463829 17.1863C0.596665 17.409 0.784984 17.5935 1.01041 17.7217C1.23583 17.85 1.49065 17.9176 1.74999 17.918H17.7292C17.9888 17.918 18.2439 17.8507 18.4696 17.7226C18.6954 17.5945 18.884 17.4101 19.0171 17.1873C19.1502 16.9644 19.2233 16.7109 19.229 16.4514C19.2348 16.1919 19.1732 15.9354 19.0502 15.7069ZM9.74078 15.6211C9.55536 15.6211 9.3741 15.5661 9.21993 15.4631C9.06576 15.3601 8.9456 15.2137 8.87464 15.0424C8.80368 14.8711 8.78512 14.6826 8.82129 14.5007C8.85746 14.3188 8.94675 14.1518 9.07786 14.0207C9.20897 13.8896 9.37602 13.8003 9.55788 13.7641C9.73974 13.7279 9.92824 13.7465 10.0995 13.8175C10.2708 13.8884 10.4173 14.0086 10.5203 14.1627C10.6233 14.3169 10.6783 14.4982 10.6783 14.6836C10.6783 14.9322 10.5795 15.1707 10.4037 15.3465C10.2279 15.5223 9.98942 15.6211 9.74078 15.6211ZM10.7589 6.19219L10.4898 11.9109C10.4898 12.1098 10.4108 12.3006 10.2702 12.4413C10.1295 12.5819 9.93875 12.6609 9.73984 12.6609C9.54093 12.6609 9.35016 12.5819 9.20951 12.4413C9.06886 12.3006 8.98984 12.1098 8.98984 11.9109L8.72078 6.19453C8.71473 6.05793 8.73625 5.92151 8.78404 5.79341C8.83184 5.6653 8.90494 5.54813 8.99899 5.44888C9.09304 5.34963 9.2061 5.27033 9.33145 5.2157C9.4568 5.16108 9.59186 5.13225 9.72859 5.13094H9.73843C9.87609 5.13087 10.0123 5.15869 10.1389 5.21272C10.2656 5.26675 10.3799 5.34587 10.4751 5.44531C10.5703 5.54475 10.6443 5.66245 10.6928 5.7913C10.7413 5.92015 10.7631 6.05748 10.757 6.195L10.7589 6.19219Z" fill="#EAB11F"/>
</svg>
